<?xml version="1.0" encoding="UTF-8"?>
<svg width="100pt" height="100pt" version="1.1" viewBox="0 0 100 100" xmlns="http://www.w3.org/2000/svg">
  <path fill="white" d="m66 28h8c1.1016 0 2-0.89844 2-2v-16c0-1.1016-0.89844-2-2-2h-12c-12.129 0-22 9.8711-22 22v10.16h-14c-1.1016 0-2 0.89844-2 2v15.84c0 1.1016 0.89844 2 2 2h12.609v30c0 1.1016 0.89844 2 2 2h16.699c1.1016 0 2-0.89844 2-2v-30h10.52c0.91016 0 1.7109-0.60938 1.9414-1.5l4.1719-16c0.16016-0.60156 0.03125-1.2383-0.35156-1.7305-0.37891-0.48828-0.96094-0.78125-1.5781-0.78125h-14v-6c0-3.3086 2.6914-6 6-6zm-8 16h13.41l-3.1289 12h-10.98c-1.1016 0-2 0.89844-2 2v30h-12.699v-30c0-1.1016-0.89844-2-2-2h-12.609v-11.84h14c1.1016 0 2-0.89844 2-2v-12.16c0-9.9219 8.0703-18 18-18h10v12h-6c-5.5117 0-10 4.4883-10 10v8c0 1.1016 0.89844 2 2 2z"/>
</svg>
